<?xml version="1.0" encoding="UTF-8" standalone="no"?>
<svg xmlns:sketch="http://www.bohemiancoding.com/sketch/ns" xmlns:dc="http://purl.org/dc/elements/1.1/" xmlns:cc="http://creativecommons.org/ns#" xmlns:rdf="http://www.w3.org/1999/02/22-rdf-syntax-ns#" xmlns:svg="http://www.w3.org/2000/svg" xmlns="http://www.w3.org/2000/svg" xmlns:sodipodi="http://sodipodi.sourceforge.net/DTD/sodipodi-0.dtd" xmlns:inkscape="http://www.inkscape.org/namespaces/inkscape" width="400.1076" height="480.61304" viewBox="0 0 400.1076 480.61304" version="1.1" id="svg2" inkscape:version="0.48.4 r9939" sodipodi:docname="Moscow Transport logo.svg">
  <metadata id="metadata19">
    <rdf:RDF>
      <cc:Work rdf:about="">
        <dc:format>image/svg+xml</dc:format>
        <dc:type rdf:resource="http://purl.org/dc/dcmitype/StillImage"/>
        <dc:title>mostrans_vert_sign</dc:title>
      </cc:Work>
    </rdf:RDF>
  </metadata>
  <sodipodi:namedview pagecolor="#ffffff" bordercolor="#666666" borderopacity="1" objecttolerance="10" gridtolerance="10" guidetolerance="10" inkscape:pageopacity="0" inkscape:pageshadow="2" inkscape:window-width="1600" inkscape:window-height="837" id="namedview17" showgrid="false" inkscape:zoom="1.0301062" inkscape:cx="-18.580537" inkscape:cy="223.67721" inkscape:window-x="-8" inkscape:window-y="-8" inkscape:window-maximized="1" inkscape:current-layer="svg2" showguides="true" inkscape:guide-bbox="true" inkscape:snap-bbox="true" inkscape:bbox-paths="true" inkscape:bbox-nodes="true" inkscape:snap-bbox-edge-midpoints="true" inkscape:snap-bbox-midpoints="true" fit-margin-top="0" fit-margin-left="0" fit-margin-right="0" fit-margin-bottom="0">
    <sodipodi:guide orientation="0,1" position="262.25774,4.8899999e-006" id="guide3009"/>
    <sodipodi:guide orientation="1,0" position="400.10761,264.10007" id="guide3047"/>
    <sodipodi:guide orientation="1,0" position="0.14883035,343.64285" id="guide3051"/>
    <sodipodi:guide orientation="0,1" position="283.61476,480.61304" id="guide3053"/>
  </sodipodi:namedview>
  <!-- Generator: Sketch 3.3.3 (12081) - http://www.bohemiancoding.com/sketch -->
  <title id="title4">mostrans_vert_sign</title>
  <desc id="desc6">Created with Sketch.</desc>
  <defs id="defs8"/>
  <g id="g3017" transform="matrix(2.9982099,0,0,2.9982099,0.44622465,-2.3985679)">
    <g sketch:type="MSPage" id="Page-1" style="fill:none;stroke:none">
      <g sketch:type="MSLayerGroup" id="mostrans_vert_sign" style="fill:#d9232e">
        <path sketch:type="MSShapeGroup" id="Shape" d="M 66.9,39.6 C 51.6,39.6 39.2,52 39.2,67.2 39.2,82.5 51.6,94.9 66.9,94.9 82.1,94.9 94.6,82.5 94.6,67.2 94.6,52 82.1,39.6 66.9,39.6 l 0,0 z m 0,44.5 C 57.6,84.1 50,76.5 50,67.2 c 0,-9.3 7.6,-16.8 16.9,-16.8 9.3,0 16.9,7.5 16.9,16.8 0,9.3 -7.6,16.9 -16.9,16.9 l 0,0 z" inkscape:connector-curvature="0"/>
        <g id="g3014">
          <path d="m 100.1,100.5 0.1,-0.1 c 8.5,-8.5 13.7,-20.2 13.7,-33.2 0,-25.9 -21.1,-47 -47,-47 -25.9,0 -47,21.1 -47,47 0,13 5.3,24.8 13.7,33.2 1,1 2.4,1.6 3.9,1.6 3,0 5.4,-2.4 5.4,-5.4 0,-1.5 -0.7,-2.9 -1.7,-3.9 C 34.7,86.2 30.7,77.2 30.7,67.2 30.7,47.2 46.9,31 66.9,31 c 20,0 36.2,16.2 36.2,36.2 0,10 -4,19.1 -10.6,25.6 l -47,47 7.7,7.6 46.9,-46.9 z" id="path13" sketch:type="MSShapeGroup" inkscape:connector-curvature="0"/>
        </g>
        <g id="g3011">
          <path d="M 133.3,67.2 C 133.3,30.6 103.6,0.8 66.9,0.8 30.2,0.8 0.5,30.6 0.5,67.2 c 0,18.3 7.4,35 19.4,46.9 1,1 2.3,1.6 3.9,1.6 2.9,0 5.4,-2.4 5.4,-5.4 0,-1.5 -0.7,-2.9 -1.7,-3.9 -10,-10 -16.2,-23.9 -16.2,-39.2 0,-30.6 24.9,-55.6 55.6,-55.6 30.7,0 55.6,25 55.6,55.6 0,15.4 -6.2,29.3 -16.3,39.3 l -47,47 7.7,7.6 47,-47 c 12,-12 19.4,-28.6 19.4,-46.9 l 0,0 z" id="path15" sketch:type="MSShapeGroup" inkscape:connector-curvature="0"/>
        </g>
      </g>
    </g>
    <g sketch:type="MSPage" id="Page-1-1" style="fill:none;stroke:none" transform="matrix(0.25361336,-0.25450018,0.25644986,0.25555625,-1.3410968,147.71826)">
      <g sketch:type="MSLayerGroup" id="mostrans_vert_text" style="fill:#d9232e">
        <path sketch:type="MSShapeGroup" id="Shape-7" d="m 0,25.3 4.6,-25.2 3.4,0 6.7,16.2 7,-16.2 3.4,0 4.2,25.2 -4.9,0 L 22.1,9.9 15.3,25.7 14,25.7 7.5,10.1 4.9,25.3 0,25.3 z" inkscape:connector-curvature="0"/>
        <path sketch:type="MSShapeGroup" id="path13-4" d="m 40.5,8.7 c 1.3,0 2.5,0.2 3.6,0.6 1.1,0.4 2.1,0.9 3,1.7 0.8,0.8 1.4,1.7 1.9,2.8 0.5,1.1 0.8,2.2 0.8,3.5 0,1.3 -0.3,2.5 -0.8,3.6 -0.5,1 -1.1,2 -2,2.7 -0.8,0.8 -1.8,1.3 -2.9,1.7 -1.1,0.4 -2.3,0.6 -3.6,0.6 -1.3,0 -2.5,-0.2 -3.6,-0.6 -1.1,-0.4 -2.1,-0.9 -2.9,-1.7 -0.8,-0.7 -1.5,-1.7 -2,-2.7 -0.5,-1.1 -0.7,-2.3 -0.7,-3.6 0,-1.3 0.2,-2.4 0.7,-3.5 0.5,-1.1 1.2,-2 2,-2.8 0.8,-0.8 1.8,-1.3 2.9,-1.7 1.1,-0.4 2.3,-0.6 3.6,-0.6 l 0,0 z m 0,13.1 c 1.3,0 2.4,-0.4 3.3,-1.3 0.8,-0.8 1.3,-1.9 1.3,-3.2 0,-1.3 -0.5,-2.3 -1.3,-3.2 -0.9,-0.9 -2,-1.3 -3.3,-1.4 -1.3,0 -2.4,0.5 -3.2,1.4 C 36.4,15 36,16 36,17.3 c 0,1.3 0.4,2.4 1.3,3.3 0.8,0.8 1.9,1.3 3.2,1.2 l 0,0 z" inkscape:connector-curvature="0"/>
        <path sketch:type="MSShapeGroup" id="path15-0" d="m 65.5,9.7 0,4.4 c -0.5,-0.4 -1,-0.7 -1.6,-1 -0.7,-0.2 -1.3,-0.4 -2.1,-0.4 -1.4,0 -2.5,0.5 -3.3,1.4 -0.9,0.9 -1.2,1.9 -1.2,3.2 0,1.3 0.4,2.4 1.3,3.3 0.9,0.8 2,1.2 3.4,1.2 0.6,0 1.2,-0.1 1.9,-0.3 0.6,-0.2 1.1,-0.6 1.6,-1.1 l 0,4.5 c -0.6,0.3 -1.3,0.5 -2,0.7 -0.7,0.2 -1.4,0.3 -2.1,0.3 -1.2,-0.1 -2.4,-0.3 -3.5,-0.7 -1.1,-0.4 -2,-1 -2.8,-1.7 -0.8,-0.7 -1.4,-1.6 -1.9,-2.7 -0.4,-1 -0.6,-2.2 -0.6,-3.4 0,-1.4 0.2,-2.7 0.7,-3.8 0.5,-1.1 1.2,-2 2.1,-2.8 0.8,-0.7 1.7,-1.2 2.7,-1.6 0.9,-0.3 2,-0.5 3.1,-0.5 0.8,0 1.6,0.1 2.3,0.3 0.7,0.1 1.4,0.4 2,0.7 l 0,0 z" inkscape:connector-curvature="0"/>
        <path sketch:type="MSShapeGroup" id="path17" d="m 69.6,9.2 4.5,0 0,6.3 6.1,-6.3 5.6,0 -7.3,7.2 7.7,8.9 -5.8,0 -5.6,-6.6 -0.7,0.7 0,5.9 -4.5,0 0,-16.1 z" inkscape:connector-curvature="0"/>
        <path sketch:type="MSShapeGroup" id="path19" d="m 95.4,8.7 c 1.3,0 2.5,0.2 3.6,0.6 1.1,0.4 2.1,0.9 3,1.7 0.8,0.8 1.4,1.7 1.9,2.8 0.5,1.1 0.8,2.2 0.8,3.5 0,1.3 -0.3,2.5 -0.8,3.6 -0.5,1 -1.1,2 -1.9,2.7 -0.9,0.8 -1.9,1.3 -3,1.7 -1.1,0.4 -2.3,0.6 -3.6,0.6 -1.3,0 -2.5,-0.2 -3.6,-0.6 -1.1,-0.4 -2,-0.9 -2.9,-1.7 -0.8,-0.7 -1.5,-1.7 -2,-2.7 -0.5,-1.1 -0.7,-2.3 -0.7,-3.6 0,-1.3 0.2,-2.4 0.7,-3.5 0.5,-1.1 1.2,-2 2,-2.8 0.9,-0.8 1.8,-1.3 2.9,-1.7 1.1,-0.4 2.3,-0.6 3.6,-0.6 l 0,0 z m 0,13.1 c 1.3,0 2.4,-0.4 3.3,-1.3 0.8,-0.8 1.3,-1.9 1.3,-3.2 0,-1.3 -0.5,-2.3 -1.3,-3.2 -0.9,-0.9 -2,-1.3 -3.3,-1.4 -1.3,0 -2.4,0.5 -3.2,1.4 -0.9,0.9 -1.3,1.9 -1.3,3.2 0,1.3 0.4,2.4 1.3,3.3 0.8,0.8 1.9,1.3 3.2,1.2 l 0,0 z" inkscape:connector-curvature="0"/>
        <path sketch:type="MSShapeGroup" id="path21" d="m 107.9,9.2 7.1,0 c 1,0 1.7,0.1 2.3,0.3 0.6,0.1 1.1,0.4 1.6,0.7 0.4,0.4 0.8,0.8 1.1,1.4 0.3,0.5 0.4,1.1 0.4,1.8 0,0.7 -0.2,1.3 -0.6,1.9 -0.4,0.6 -0.9,1.1 -1.6,1.4 0.4,0.1 0.7,0.2 1.1,0.4 0.4,0.2 0.7,0.4 1,0.6 0.4,0.4 0.7,0.9 0.9,1.4 0.2,0.5 0.3,1 0.3,1.6 0,0.8 -0.1,1.5 -0.4,2.1 -0.3,0.6 -0.8,1.1 -1.3,1.5 -0.4,0.4 -1,0.6 -1.6,0.8 -0.6,0.2 -1.3,0.2 -2,0.2 l -8.3,0 0,-16.1 z m 4.5,6.4 2.1,0 0.7,0 c 0.2,-0.1 0.4,-0.2 0.5,-0.3 0.2,-0.1 0.4,-0.2 0.5,-0.4 0.1,-0.2 0.1,-0.4 0.1,-0.7 0,-0.2 0,-0.4 -0.1,-0.6 -0.1,-0.2 -0.2,-0.4 -0.4,-0.5 -0.1,-0.1 -0.3,-0.2 -0.5,-0.2 -0.1,0 -0.4,-0.1 -0.8,-0.1 l -2.1,0 0,2.8 z m 0,6.2 2.2,0 c 0.4,0 0.7,-0.1 1,-0.1 0.2,-0.1 0.5,-0.2 0.7,-0.3 0.1,-0.2 0.3,-0.3 0.4,-0.6 0.1,-0.2 0.1,-0.5 0.1,-0.7 0,-0.3 0,-0.5 -0.1,-0.7 -0.1,-0.2 -0.3,-0.3 -0.4,-0.5 -0.2,-0.1 -0.4,-0.2 -0.7,-0.2 -0.3,-0.1 -0.6,-0.1 -0.9,-0.2 l -2.3,0 0,3.3 z" inkscape:connector-curvature="0"/>
        <path sketch:type="MSShapeGroup" id="path23" d="m 137,9.7 0,4.4 c -0.5,-0.4 -1.1,-0.7 -1.7,-1 -0.6,-0.2 -1.3,-0.4 -2,-0.4 -1.5,0 -2.6,0.5 -3.4,1.4 -0.8,0.9 -1.2,1.9 -1.2,3.2 0,1.3 0.5,2.4 1.3,3.3 0.9,0.8 2,1.2 3.4,1.2 0.7,0 1.3,-0.1 1.9,-0.3 0.6,-0.2 1.2,-0.6 1.7,-1.1 l 0,4.5 c -0.7,0.3 -1.3,0.5 -2,0.7 -0.7,0.2 -1.4,0.3 -2.2,0.3 -1.2,-0.1 -2.4,-0.3 -3.5,-0.7 -1.1,-0.4 -2,-1 -2.7,-1.7 -0.8,-0.7 -1.5,-1.6 -1.9,-2.7 -0.5,-1 -0.7,-2.2 -0.7,-3.4 0,-1.4 0.3,-2.7 0.8,-3.8 0.5,-1.1 1.1,-2 2,-2.8 0.8,-0.7 1.7,-1.2 2.7,-1.6 1,-0.3 2,-0.5 3.1,-0.5 0.8,0 1.6,0.1 2.3,0.3 0.7,0.1 1.4,0.4 2.1,0.7 l 0,0 z" inkscape:connector-curvature="0"/>
        <path sketch:type="MSShapeGroup" id="path25" d="m 140.8,9.2 4.5,0 0,6.3 6,-6.3 5.7,0 -7.3,7.2 7.7,8.9 -5.8,0 -5.6,-6.6 -0.7,0.7 0,5.9 -4.5,0 0,-16.1 z" inkscape:connector-curvature="0"/>
        <path sketch:type="MSShapeGroup" id="path27" d="m 159.6,9.2 4.6,0 0,10 7.4,-10 4.6,0 0,16.1 -4.6,0 0,-9.9 -7.4,9.9 -4.6,0 0,-16.1 z" inkscape:connector-curvature="0"/>
        <path sketch:type="MSShapeGroup" id="path29" d="m 180.8,9.2 4.5,0 0,10 7.5,-10 4.5,0 0,16.1 -4.5,0 0,-9.9 -7.5,9.9 -4.5,0 0,-16.1 z m 11.4,-8 2.9,1.4 c -0.4,1.2 -1.2,2.2 -2.3,2.9 -1.1,0.6 -2.4,0.9 -3.8,0.9 -1.4,0 -2.6,-0.3 -3.8,-1 -1.1,-0.6 -1.9,-1.6 -2.3,-2.8 l 3,-1.4 c 0.1,0.7 0.5,1.2 1.1,1.7 0.6,0.4 1.2,0.6 2,0.6 0.8,0 1.5,-0.2 2.1,-0.6 0.5,-0.5 0.9,-1 1.1,-1.7 l 0,0 z" inkscape:connector-curvature="0"/>
        <path sketch:type="MSShapeGroup" id="path31" d="m 31.1,40.8 -5.6,0 0,20.6 -4.8,0 0,-20.6 -5.6,0 0,-4.2 16,0 0,4.2 z" inkscape:connector-curvature="0"/>
        <path sketch:type="MSShapeGroup" id="path33" d="m 35.7,59.3 0,10.7 -4.5,0 0,-24.7 4.5,0 0,2.1 c 0.6,-0.8 1.3,-1.5 2.2,-1.9 0.9,-0.5 1.9,-0.7 3.1,-0.7 2.3,0 4.2,0.8 5.7,2.5 1.5,1.6 2.2,3.6 2.2,6 0,2.5 -0.7,4.6 -2.2,6.2 -1.5,1.6 -3.5,2.4 -5.8,2.4 -1.1,0 -2.1,-0.2 -2.9,-0.6 -0.9,-0.4 -1.7,-1.1 -2.3,-2 l 0,0 z m 4,-10.5 c -1.3,0 -2.4,0.5 -3.2,1.3 -0.8,0.9 -1.3,2 -1.2,3.3 0,1.3 0.4,2.4 1.2,3.2 0.9,0.9 1.9,1.3 3.2,1.3 1.3,0 2.4,-0.4 3.2,-1.3 0.9,-0.8 1.3,-1.9 1.3,-3.2 0,-1.3 -0.4,-2.4 -1.3,-3.2 -0.8,-0.9 -1.9,-1.4 -3.2,-1.4 l 0,0 z" inkscape:connector-curvature="0"/>
        <path sketch:type="MSShapeGroup" id="path35" d="m 64.8,47.4 0,-2.1 4.5,0 0,16.1 -4.5,0 0,-2.1 c -0.6,0.9 -1.3,1.6 -2.2,2 -0.8,0.4 -1.7,0.6 -2.8,0.6 -2.4,0 -4.4,-0.8 -5.9,-2.4 -1.5,-1.7 -2.3,-3.7 -2.3,-6.1 0,-2.5 0.7,-4.5 2.2,-6.1 1.5,-1.7 3.4,-2.5 5.8,-2.5 1.1,0 2.2,0.2 3,0.7 0.9,0.4 1.6,1.1 2.2,1.9 l 0,0 z m -4,1.4 c -1.4,0 -2.4,0.5 -3.3,1.3 -0.8,0.9 -1.2,2 -1.2,3.3 0,1.3 0.4,2.4 1.2,3.2 0.9,0.9 1.9,1.3 3.3,1.3 1.3,0 2.3,-0.4 3.1,-1.3 0.9,-0.8 1.3,-1.9 1.3,-3.2 0,-1.3 -0.4,-2.4 -1.2,-3.3 -0.9,-0.8 -1.9,-1.3 -3.2,-1.3 l 0,0 z" inkscape:connector-curvature="0"/>
        <path sketch:type="MSShapeGroup" id="path37" d="m 73.5,61.4 0,-16.1 4.6,0 0,5.7 6.3,0 0,-5.7 4.6,0 0,16.1 -4.6,0 0,-6.5 -6.3,0 0,6.5 -4.6,0 z" inkscape:connector-curvature="0"/>
        <path sketch:type="MSShapeGroup" id="path39" d="m 105.4,45.8 0,4.4 c -0.5,-0.4 -1.1,-0.8 -1.7,-1 -0.6,-0.3 -1.2,-0.4 -2,-0.4 -1.4,0 -2.6,0.5 -3.4,1.4 -0.8,0.8 -1.2,1.9 -1.1,3.1 0,1.4 0.4,2.5 1.3,3.3 0.9,0.9 2,1.3 3.4,1.3 0.6,0 1.2,-0.1 1.8,-0.3 0.6,-0.3 1.2,-0.6 1.7,-1.1 l 0,4.4 c -0.6,0.4 -1.3,0.6 -2,0.8 -0.7,0.2 -1.4,0.2 -2.1,0.2 -1.3,0 -2.4,-0.2 -3.5,-0.6 -1.1,-0.4 -2,-1 -2.8,-1.7 -0.8,-0.7 -1.4,-1.6 -1.9,-2.7 -0.4,-1 -0.6,-2.2 -0.6,-3.5 0,-1.3 0.2,-2.6 0.7,-3.7 0.5,-1.1 1.2,-2 2.1,-2.8 0.8,-0.7 1.6,-1.2 2.7,-1.6 0.9,-0.3 2,-0.5 3.1,-0.5 0.8,0 1.6,0.1 2.3,0.2 0.7,0.2 1.4,0.4 2,0.8 l 0,0 z" inkscape:connector-curvature="0"/>
        <path sketch:type="MSShapeGroup" id="path41" d="m 109.3,45.3 15.3,0 0,16.1 -4.6,0 0,-12.2 -6.2,0 0,12.2 -4.5,0 0,-16.1 z" inkscape:connector-curvature="0"/>
        <path sketch:type="MSShapeGroup" id="path43" d="m 137,44.8 c 1.3,0 2.4,0.2 3.5,0.6 1.2,0.4 2.1,0.9 3,1.7 0.8,0.7 1.5,1.7 2,2.8 0.5,1 0.7,2.2 0.7,3.5 0,1.3 -0.2,2.5 -0.7,3.5 -0.5,1.1 -1.2,2 -2,2.8 -0.9,0.7 -1.8,1.3 -3,1.7 -1,0.4 -2.2,0.5 -3.5,0.5 -1.3,0 -2.5,-0.1 -3.6,-0.5 -1.1,-0.4 -2.1,-1 -2.9,-1.7 -0.9,-0.8 -1.5,-1.7 -2,-2.8 -0.5,-1 -0.8,-2.2 -0.8,-3.5 0,-1.3 0.3,-2.5 0.8,-3.5 0.5,-1.1 1.1,-2.1 2,-2.8 0.8,-0.8 1.8,-1.3 2.9,-1.7 1.1,-0.4 2.3,-0.6 3.6,-0.6 l 0,0 z m 0,13.1 c 1.3,0 2.4,-0.4 3.2,-1.3 0.9,-0.9 1.3,-1.9 1.3,-3.2 0,-1.3 -0.4,-2.3 -1.3,-3.2 -0.8,-0.9 -1.9,-1.4 -3.2,-1.4 -1.3,0 -2.4,0.5 -3.3,1.4 -0.8,0.8 -1.3,1.9 -1.3,3.2 0,1.3 0.5,2.3 1.3,3.2 0.9,0.9 2,1.4 3.3,1.3 l 0,0 z" inkscape:connector-curvature="0"/>
        <path sketch:type="MSShapeGroup" id="path45" d="m 154,59.3 0,10.7 -4.6,0 0,-24.7 4.6,0 0,2.1 c 0.5,-0.8 1.3,-1.5 2.1,-1.9 0.9,-0.5 2,-0.7 3.1,-0.7 2.4,0 4.3,0.8 5.8,2.5 1.4,1.6 2.2,3.6 2.2,6.1 0,2.4 -0.8,4.5 -2.3,6.1 -1.5,1.6 -3.4,2.4 -5.8,2.4 -1,0 -2,-0.2 -2.9,-0.6 -0.9,-0.4 -1.6,-1.1 -2.2,-2 l 0,0 z m 4,-10.5 c -1.3,0 -2.4,0.5 -3.2,1.3 -0.9,0.9 -1.3,2 -1.3,3.3 0,1.3 0.4,2.4 1.3,3.2 0.8,0.9 1.9,1.3 3.2,1.3 1.3,0 2.4,-0.4 3.2,-1.3 0.8,-0.8 1.3,-1.9 1.3,-3.3 0,-1.2 -0.4,-2.3 -1.3,-3.1 -0.8,-0.9 -1.9,-1.4 -3.2,-1.4 l 0,0 z" inkscape:connector-curvature="0"/>
        <path sketch:type="MSShapeGroup" id="path47" d="m 182.2,49.2 -4.4,0 0,12.2 -4.6,0 0,-12.2 -4.5,0 0,-3.9 13.5,0 0,3.9 z" inkscape:connector-curvature="0"/>
      </g>
    </g>
  </g>
</svg>